# xmcd
#
# Track frame offsets:
#	225
#	19362
#	36489
#	49324
#	64929
#	81417
#	96591
#	114783
#	129816
#	146785
#	153346
#	167038
#	188999
#	206512
#
# Disc length: 3053 seconds
#
# Revision: 1
# Processed by: cddbd v1.5.1PL2 Copyright (c) Steve Scherf et al.
# Submitted via: audiograbber 1.83.01
#
DISCID=cc0bea0e
DTITLE=Stewart Barnes - Regal Blue
DYEAR=1900
DGENRE=
TTITLE0=Midnite Blues
TTITLE1=Baby's lovin'
TTITLE2=Reconsider Baby
TTITLE3=Regal Blue
TTITLE4=Me and my car
TTITLE5=The real Thing
TTITLE6=Blues Walker
TTITLE7=Shot from the saddle
TTITLE8=Special love song
TTITLE9=Nit pickin'
TTITLE10=Cherokee bougie/pipeliner blues
TTITLE11=Teenies Soul Dream
TTITLE12=Devil went down to Georgia
TTITLE13=Real meaning of the blues
EXTD=
EXTT0=
EXTT1=
EXTT2=
EXTT3=
EXTT4=
EXTT5=
EXTT6=
EXTT7=
EXTT8=
EXTT9=
EXTT10=
EXTT11=
EXTT12=
EXTT13=
PLAYORDER=
